<svg xmlns="http://www.w3.org/2000/svg" width="512" height="512" viewBox="0 0 512 512" role="img" aria-labelledby="title"><title id="title">Daily Life — rose and leaves</title>
<defs><linearGradient id="bg" x2="1" y2="1"><stop stop-color="#294d3e"/><stop offset="1" stop-color="#10291f"/></linearGradient><linearGradient id="rose" x2=".8" y2="1"><stop stop-color="#ffe7ea"/><stop offset="1" stop-color="#d696aa"/></linearGradient></defs>
<rect width="512" height="512" fill="url(#bg)"/>
<circle cx="256" cy="256" r="172" fill="none" stroke="#ead7ae" stroke-width="2" opacity=".65"/>
<path d="M256 375V290M256 353C208 345 179 316 171 286C214 285 246 314 256 353M257 331C294 314 314 284 316 261C281 266 259 293 257 331" fill="#8ba995" stroke="#d7dfbf" stroke-width="3" stroke-linejoin="round"/>
<g fill="url(#rose)" stroke="#efbfca" stroke-width="2.5" stroke-linejoin="round">
<path d="M257 300C191 301 153 266 161 220C135 190 153 158 187 162C199 124 233 113 256 143C285 114 318 127 326 162C363 157 379 194 351 220C357 266 317 298 257 300Z"/>
<path d="M257 288C216 280 184 254 181 219C207 206 236 209 257 239C278 207 307 205 334 220C328 257 299 282 257 288Z" fill="#e6aebe"/>
<path d="M257 256C223 242 202 208 214 174C243 171 261 190 268 218C278 190 300 180 319 187C318 221 290 245 257 256Z" fill="#ffe5e9"/>
<path d="M256 242C235 228 231 208 242 192C267 191 280 208 273 225C269 234 263 239 256 242Z" fill="#c5869e"/>
<path d="M253 224C247 216 250 207 258 207C267 209 267 219 260 225" fill="none" stroke="#ffe8eb" stroke-width="4"/>
</g>
<g fill="#ead7ae"><path d="M352 123l3 12 12 3-12 3-3 12-3-12-12-3 12-3Z"/><circle cx="151" cy="339" r="3"/><circle cx="356" cy="345" r="3"/></g>
</svg>
